<svg id="visual" viewBox="0 0 900 600" width="900" height="600" xmlns="http://www.w3.org/2000/svg" xmlns:xlink="http://www.w3.org/1999/xlink" version="1.1"><rect x="0" y="0" width="900" height="600" fill="#fce3e7"></rect><path d="M0 389L37.5 389.3C75 389.7 150 390.3 225 391.7C300 393 375 395 450 395.3C525 395.7 600 394.3 675 390.3C750 386.3 825 379.7 862.5 376.3L900 373L900 601L862.5 601C825 601 750 601 675 601C600 601 525 601 450 601C375 601 300 601 225 601C150 601 75 601 37.5 601L0 601Z" fill="#d16666"></path><path d="M0 409L37.5 410.7C75 412.3 150 415.7 225 424.7C300 433.7 375 448.3 450 457.5C525 466.7 600 470.3 675 471.3C750 472.3 825 470.7 862.5 469.8L900 469L900 601L862.5 601C825 601 750 601 675 601C600 601 525 601 450 601C375 601 300 601 225 601C150 601 75 601 37.5 601L0 601Z" fill="#be504d"></path><path d="M0 453L37.5 457C75 461 150 469 225 471.5C300 474 375 471 450 470.2C525 469.3 600 470.7 675 472.7C750 474.7 825 477.3 862.5 478.7L900 480L900 601L862.5 601C825 601 750 601 675 601C600 601 525 601 450 601C375 601 300 601 225 601C150 601 75 601 37.5 601L0 601Z" fill="#aa3934"></path><path d="M0 481L37.5 486.7C75 492.3 150 503.7 225 504.7C300 505.7 375 496.3 450 497C525 497.7 600 508.3 675 509C750 509.7 825 500.3 862.5 495.7L900 491L900 601L862.5 601C825 601 750 601 675 601C600 601 525 601 450 601C375 601 300 601 225 601C150 601 75 601 37.5 601L0 601Z" fill="#95211c"></path><path d="M0 526L37.5 532.5C75 539 150 552 225 554.2C300 556.3 375 547.7 450 545.2C525 542.7 600 546.3 675 547.8C750 549.3 825 548.7 862.5 548.3L900 548L900 601L862.5 601C825 601 750 601 675 601C600 601 525 601 450 601C375 601 300 601 225 601C150 601 75 601 37.5 601L0 601Z" fill="#800000"></path></svg>